<?xml version="1.0" encoding="UTF-8"?>
<svg version="1.1" xmlns="http://www.w3.org/2000/svg" width="3264" height="892">
<path d="M0 0 C1.26939336 -0.00175304 2.53878672 -0.00350607 3.84664655 -0.00531223 C7.36490407 -0.01002586 10.88313559 -0.00854589 14.40139436 -0.00603446 C18.23107651 -0.00439792 22.06075317 -0.00854511 25.89043355 -0.01194364 C32.60088736 -0.01709342 39.31133396 -0.01851557 46.02178955 -0.01748753 C56.00067006 -0.01596249 65.97954259 -0.02012459 75.95842155 -0.02536215 C94.81779359 -0.0350342 113.67716291 -0.03784634 132.53653714 -0.03841921 C147.1000002 -0.0388787 161.66346219 -0.04093677 176.2269249 -0.04411983 C180.41855725 -0.04501737 184.6101896 -0.04590719 188.80182195 -0.04679471 C189.84386398 -0.04701576 190.88590602 -0.04723681 191.95952509 -0.04746456 C221.2710106 -0.05361892 250.58249574 -0.0575651 279.89398193 -0.05712128 C281.55171817 -0.05709791 281.55171817 -0.05709791 283.24294403 -0.05707407 C288.84438193 -0.05699096 294.44581984 -0.05689192 300.04725775 -0.05678936 C301.15973 -0.05676942 302.27220224 -0.05674947 303.41838577 -0.05672892 C305.66807557 -0.05668848 307.91776537 -0.05664669 310.16745517 -0.05660353 C345.17186864 -0.05599072 380.17627243 -0.06349824 415.18068314 -0.07717609 C454.50489698 -0.09253555 493.82910447 -0.10114241 533.1533215 -0.10021287 C537.34621127 -0.10013824 541.53910104 -0.10008953 545.73199081 -0.10005856 C546.76439237 -0.1000469 547.79679393 -0.10003525 548.86048038 -0.10002324 C565.47632951 -0.09999246 582.09217024 -0.106379 598.70801688 -0.11499082 C615.40607973 -0.12346628 632.10413028 -0.12445808 648.80219409 -0.1178815 C658.72201211 -0.11418522 668.64179276 -0.11602058 678.56160683 -0.12582384 C685.190153 -0.13182101 691.81867209 -0.13053128 698.44721701 -0.12335334 C702.22233982 -0.11946965 705.99739028 -0.1187025 709.772508 -0.12681069 C713.84533329 -0.13548152 717.91798822 -0.12858181 721.99081421 -0.12025452 C723.15414079 -0.1252227 724.31746738 -0.13019088 725.51604629 -0.13530961 C745.18498245 -0.05029186 763.90521432 5.03464364 778.24708939 19.12863445 C792.03375391 33.50565993 797.57242464 50.37972688 797.50435829 70.00089741 C797.50786437 71.28319856 797.51137044 72.56549972 797.51498276 73.88665849 C797.52441119 77.44115509 797.52144975 80.99554881 797.51642722 84.55005036 C797.51315439 88.41902659 797.52144828 92.2879811 797.52824557 96.15695035 C797.53854564 102.93644788 797.54138935 109.71591684 797.53933334 116.49542141 C797.53628338 126.57707715 797.54460727 136.6587013 797.55508259 146.7403509 C797.57442758 165.79453703 797.58005101 184.84871241 797.58119671 203.90290721 C797.58211572 218.61795633 797.58623202 233.33300123 797.59259796 248.04804897 C797.59439305 252.28346264 797.59617267 256.51887631 797.59794772 260.75428998 C797.59861086 262.33369012 797.59861086 262.33369012 797.5992874 263.94499733 C797.61159646 293.56370251 797.61948847 323.18240623 797.61860085 352.80111408 C797.61856969 353.91788402 797.61853853 355.03465395 797.61850643 356.1852654 C797.61834021 361.84553978 797.61814213 367.50581416 797.61793701 373.16608854 C797.61787718 374.85231859 797.61787718 374.85231859 797.61781613 376.5726139 C797.61773526 378.84592654 797.61765166 381.11923919 797.61756535 383.39255184 C797.61633991 418.75951118 797.63135143 454.12643218 797.65871048 489.49338055 C797.68943486 529.22706653 797.70664275 568.96072732 797.70478404 608.69442594 C797.70463477 612.93172574 797.70453736 617.16902554 797.7044754 621.40632534 C797.70444044 622.97132321 797.70444044 622.97132321 797.70440477 624.5679372 C797.70434324 641.35449141 797.71711249 658.14101232 797.73433993 674.92755662 C797.75129774 691.80041762 797.75326909 708.67322992 797.74012129 725.54609473 C797.73273307 735.56773511 797.7363863 745.58922749 797.75600597 755.61085217 C797.76801172 762.30982374 797.76540826 769.00868819 797.75106497 775.70765486 C797.743307 779.52142144 797.7417354 783.33490178 797.75797968 787.1486481 C797.87372997 816.18463122 797.87372997 816.18463122 793.24708939 828.12863445 C792.9721343 828.87376974 792.69717921 829.61890502 792.41389215 830.38662016 C788.96223737 838.95817566 783.81530761 845.73883981 777.24708939 852.12863445 C776.56001907 852.83632977 775.87294876 853.54402508 775.16505814 854.2731657 C756.97194452 871.926224 732.70020629 871.73312196 709.03464269 871.64250467 C705.19155418 871.63226785 701.34852905 871.64543278 697.50544977 871.655478 C690.78374293 871.66986509 684.06216481 871.66952347 677.34045219 871.65928936 C667.34477804 871.64411211 657.34921177 871.65191885 647.35353826 871.66412259 C629.4976752 871.68515248 611.64186949 871.68337319 593.78600101 871.67180694 C578.1598092 871.66173497 562.53363839 871.65912245 546.907444 871.66389751 C545.35117789 871.66435582 545.35117789 871.66435582 543.76347207 871.66482339 C539.55161807 871.6660688 535.33976408 871.6673424 531.1279101 871.66866245 C491.6372759 871.68089171 452.14667816 871.6698153 412.65604959 871.64827486 C377.58985972 871.62929319 342.52372796 871.63099173 307.4575386 871.65011883 C268.03799915 871.67154874 228.6184919 871.68002433 189.19894743 871.66766977 C184.99487655 871.66638695 180.79080566 871.66513559 176.58673477 871.66389751 C175.0340708 871.66342305 175.0340708 871.66342305 173.45003988 871.662939 C157.83569406 871.65839381 142.22137155 871.66370144 126.60702896 871.67381573 C108.84845291 871.68526177 91.08994306 871.68237422 73.33137524 871.66069275 C63.39899132 871.64896549 53.46675084 871.64815495 43.53437071 871.66327745 C36.89261566 871.67227251 30.25097516 871.66661886 23.60923703 871.64925837 C19.82993945 871.63978048 16.05092598 871.63641111 12.27163774 871.6508823 C-13.09083173 871.74065203 -36.51232157 870.15144764 -55.60837936 851.2966032 C-65.6023185 840.46432039 -73.86753018 825.82725842 -73.88286245 810.77069688 C-73.88639087 809.67497682 -73.88991929 808.57925676 -73.89355463 807.45033306 C-73.89235685 806.24450779 -73.89115908 805.03868253 -73.889925 803.7963171 C-73.89257683 802.51164289 -73.89522866 801.22696869 -73.89796084 799.90336496 C-73.90520488 796.31892338 -73.90619011 792.73450273 -73.90618361 789.15005483 C-73.90725191 785.25726934 -73.91404118 781.36449319 -73.92009032 777.47171283 C-73.93117243 769.7422901 -73.93681618 762.01287192 -73.94079919 754.28344265 C-73.94580562 745.02825176 -73.95653281 735.7730697 -73.96728093 726.51788401 C-73.99292142 704.14371274 -74.00794915 681.76953804 -74.0207914 659.39535629 C-74.0250455 651.98443338 -74.02961122 644.57351072 -74.03437471 637.16258812 C-74.05963612 597.76268325 -74.0816854 558.36277797 -74.09410286 518.96286678 C-74.09702422 509.83241302 -74.09999173 500.70195928 -74.10300827 491.57150555 C-74.10337918 490.43715395 -74.10375009 489.30280235 -74.10413224 488.13407646 C-74.11628544 451.36274469 -74.14722491 414.59146082 -74.18892979 377.82015154 C-74.23172298 340.02034551 -74.25834465 302.22056477 -74.26357757 264.42073386 C-74.26431802 259.0809637 -74.2652287 253.74119357 -74.26623535 248.40142345 C-74.26642597 247.35051071 -74.26661658 246.29959796 -74.26681297 245.21683937 C-74.27032568 228.30838679 -74.29061978 211.39999419 -74.31703199 194.49156362 C-74.34318665 177.49148927 -74.3508998 160.49148418 -74.3399307 143.49139258 C-74.3339575 133.39441173 -74.3418466 123.29766594 -74.36976154 113.2007207 C-74.38704195 106.45008465 -74.38604045 99.6996085 -74.37039385 92.94896894 C-74.36200118 89.10637337 -74.36133119 85.26422565 -74.38300531 81.42167202 C-74.51048633 57.36790241 -72.36431131 38.65213883 -55.75291061 20.12863445 C-52.89150649 17.26723033 -49.92041458 14.64566886 -46.75291061 12.12863445 C-46.17541061 11.66843914 -45.59791061 11.20824383 -45.00291061 10.7341032 C-40.49531878 7.5647027 -35.4596348 5.74753912 -30.31541061 3.87863445 C-29.61158249 3.62001629 -28.90775436 3.36139812 -28.18259811 3.09494305 C-18.95614813 -0.10063194 -9.67879255 -0.01696355 0 0 Z " fill="#FE4F13" transform="translate(83.75291061401367,10.871365547180176)"/>
<path d="M0 0 C1.24517558 -0.00445784 2.49035117 -0.00891569 3.77325934 -0.01350862 C5.14198284 -0.01341934 6.51070634 -0.01322952 7.87942982 -0.01294994 C9.34377207 -0.01625249 10.80811341 -0.01997887 12.27245361 -0.02409142 C16.28838913 -0.03407561 20.30430971 -0.03782244 24.32025588 -0.04048073 C28.65525894 -0.04439458 32.9902503 -0.0539723 37.32524586 -0.0626936 C47.79192587 -0.08242993 58.2586068 -0.09252168 68.72530076 -0.10142139 C73.66136008 -0.10580986 78.59741834 -0.1111753 83.53347683 -0.11641026 C99.95527104 -0.13342146 116.3770646 -0.14791309 132.79886627 -0.155159 C137.05772051 -0.15706872 141.31657474 -0.15898907 145.57542896 -0.16094494 C147.16309609 -0.16167055 147.16309609 -0.16167055 148.78283731 -0.16241082 C165.90844289 -0.17070162 183.03397841 -0.19602296 200.15955343 -0.22852562 C217.76546621 -0.26166576 235.37134347 -0.27961412 252.97728759 -0.28280324 C262.85274973 -0.28496215 272.72810976 -0.29361956 282.60354137 -0.31926441 C291.01849835 -0.34106683 299.43332842 -0.34897531 307.84831043 -0.33929763 C312.13437501 -0.33478008 316.42017829 -0.33648884 320.70620632 -0.35605907 C349.65695358 -0.48071365 375.5457787 0.87751424 398.61913013 20.13422108 C399.3216692 20.67433826 400.02420826 21.21445545 400.74803638 21.77093983 C416.69587365 34.56142749 427.98146465 55.62728143 430.408288 75.80998135 C430.79803263 80.10637096 430.79281925 84.40364394 430.81200123 88.71503162 C430.82017872 89.74560688 430.82835621 90.77618214 430.8367815 91.83798695 C430.86148898 95.23229894 430.87812072 98.62656929 430.89256763 102.02093983 C430.90055315 103.77444217 430.90055315 103.77444217 430.90869999 105.5633688 C430.93537779 111.76023799 430.95476329 117.95708749 430.96922779 124.15399647 C430.98251428 129.2427231 431.01027765 134.33104376 431.05125904 139.41962147 C431.10102599 145.6016283 431.12540281 151.78326989 431.13245487 157.96546841 C431.13909789 160.30103838 431.15413381 162.63660247 431.17834568 164.97205639 C431.48500691 196.36168833 423.71388483 221.30785199 401.61913013 244.13422108 C400.88178638 244.89734608 400.14444263 245.66047108 399.38475513 246.44672108 C381.82337227 263.41879579 358.96586356 269.47544091 335.13580799 269.37473011 C333.58776313 269.37560366 332.03971856 269.37735737 330.49167556 269.37990844 C326.26370296 269.3843567 322.0358327 269.3764132 317.80787313 269.36635232 C313.23883512 269.35768356 308.66980248 269.3606404 304.10075855 269.36215687 C296.19316532 269.36320356 288.28560519 269.35694956 280.37802029 269.34568119 C268.94510387 269.32939983 257.5122034 269.32421549 246.07927664 269.32170521 C227.52834309 269.31733224 208.97742717 269.30403395 190.42650318 269.28509998 C172.41022803 269.26673088 154.39395768 269.25257941 136.37767506 269.24408436 C135.26641566 269.24355891 134.15515627 269.24303346 133.01022235 269.24249209 C127.43514078 269.23988194 121.86005918 269.23735455 116.28497756 269.23486829 C70.06301621 269.21414819 23.84107408 269.17893351 -22.38086987 269.13422108 C-22.31938716 279.99248889 -22.24208806 290.85052172 -22.14515495 301.70853424 C-22.10061943 306.75153633 -22.06132718 311.79446074 -22.03443432 316.83759022 C-22.00823238 321.71367225 -21.96771333 326.58945265 -21.9176836 331.46534634 C-21.90112825 333.31621806 -21.88954401 335.16714182 -21.88325596 337.0180769 C-21.81222363 356.02255534 -19.49077965 372.59101387 -5.72852612 386.95062733 C8.3641622 400.05846887 24.66477407 402.44838421 43.18701649 402.38577747 C44.74443432 402.38791943 46.30185115 402.39094736 47.85926574 402.39477789 C52.1135297 402.40277574 56.36770508 402.39853136 60.62196863 402.39225912 C65.21983483 402.38770855 69.81768463 402.39477417 74.41554737 402.40056324 C82.3754947 402.40918025 90.33541982 402.41100826 98.29537106 402.40861607 C109.81489783 402.40551366 121.33437563 402.41717365 132.85389005 402.43316586 C151.55973067 402.45910568 170.26557133 402.47913665 188.97142506 402.49261951 C190.64935228 402.49383507 190.64935228 402.49383507 192.36117702 402.49507518 C208.24296323 402.50630167 224.12474594 402.51157931 240.00653558 402.51446231 C241.12545692 402.51466629 242.24437826 402.51487028 243.39720631 402.51508045 C244.51475965 402.51528039 245.63231299 402.51548032 246.78373159 402.51568632 C265.42257929 402.5194198 284.06137374 402.5385067 302.70019478 402.57017481 C314.19011666 402.5890806 325.67990193 402.59505633 337.16983508 402.58435763 C345.04152082 402.57803664 352.91310857 402.58608442 360.78477282 402.60541175 C365.32479037 402.61608841 369.86456993 402.62025404 374.40458584 402.60694027 C378.56396551 402.59486516 382.72289952 402.60127926 386.88224065 402.62213226 C388.38342199 402.62642473 389.88464128 402.62402343 391.3857959 402.61409108 C403.4332176 402.54019238 412.62831031 404.29055188 421.57225513 412.79047108 C426.66561 418.6225568 430.32897552 425.30004646 430.61913013 433.13422108 C430.66811451 433.81871326 430.71709888 434.50320545 430.76756763 435.20843983 C431.15240706 443.68970871 428.91392041 451.43786866 423.61913013 458.13422108 C416.04977147 466.2858381 408.58571609 470.82883997 397.28906596 471.26187158 C396.06668581 471.26311807 394.84430566 471.26436457 393.58488369 471.26564884 C392.89727445 471.26770148 392.20966521 471.26975411 391.50121933 471.27186894 C389.19810773 471.27752145 386.89505627 471.27608386 384.59193897 471.27466297 C382.92349408 471.27724763 381.2550498 471.28026107 379.58660638 471.28366637 C375.00201023 471.29172814 370.41742973 471.29352549 365.83282733 471.29426384 C360.88779103 471.29611589 355.94276282 471.30366411 350.99773121 471.31039906 C340.18330862 471.32397826 329.36888974 471.33000679 318.55446005 471.33440971 C311.79863532 471.3371735 305.04281202 471.34141117 298.28698826 471.34591389 C279.57394532 471.35810727 260.86090353 471.36840563 242.14785671 471.37178898 C240.95024226 471.37200854 239.75262782 471.37222811 238.51872202 471.37245433 C237.31826909 471.37267261 236.11781615 471.37289089 234.88098586 471.37311578 C232.44848577 471.37355924 230.01598569 471.3740058 227.5834856 471.37445545 C225.77358617 471.3747876 225.77358617 471.3747876 223.92712311 471.37512645 C204.38998687 471.37907173 184.85288799 471.3965172 165.31576617 471.41981497 C145.24647724 471.44355363 125.17720703 471.45599202 105.10790384 471.4571569 C93.84423658 471.45807238 82.58061797 471.46379247 71.31696415 471.48197651 C61.72233748 471.49741161 52.12777449 471.50247797 42.53313775 471.49423841 C37.64207232 471.49034363 32.75113499 471.49120388 27.86008549 471.50529575 C23.37275438 471.51810555 18.8856467 471.51677559 14.39831559 471.50470504 C12.78449066 471.50276019 11.17064951 471.50576963 9.55684729 471.5145494 C-18.34109218 471.65658065 -43.51105787 463.49982037 -63.94336987 444.00922108 C-80.04095631 427.33754097 -91.49128992 405.33319033 -91.50950432 381.68177319 C-91.51272876 380.61827503 -91.51595321 379.55477687 -91.51927537 378.45905149 C-91.51772677 377.30186569 -91.51617816 376.1446799 -91.51458263 374.95242786 C-91.51684819 373.71436819 -91.51911375 372.47630851 -91.52144796 371.20073187 C-91.52667915 367.77135952 -91.52743352 364.34203964 -91.52625358 360.91266704 C-91.52604932 357.21107309 -91.53157084 353.50948692 -91.53631115 349.80789661 C-91.54461346 342.55757649 -91.54736582 335.30726449 -91.54792353 328.05694 C-91.548399 322.1609221 -91.5504553 316.26490687 -91.55362415 310.36888981 C-91.56243049 293.64251666 -91.5670437 276.91614992 -91.56629368 260.18977444 C-91.56625372 259.28827288 -91.56621377 258.38677133 -91.5661726 257.45795155 C-91.56613172 256.55534539 -91.56609084 255.65273923 -91.56604872 254.72278138 C-91.56564251 240.10397568 -91.57520567 225.48519578 -91.58931097 210.86639754 C-91.603689 195.84602298 -91.61058033 180.82566099 -91.60971719 165.80527937 C-91.60938566 157.37655875 -91.61211342 148.94786515 -91.62289524 140.51915073 C-91.63201914 133.34060247 -91.63416009 126.16209346 -91.62738582 118.98354189 C-91.6241298 115.3243546 -91.62403048 111.66524255 -91.63273907 108.00606251 C-91.64210405 104.02997927 -91.63580386 100.0540048 -91.62810802 96.07791615 C-91.63325159 94.93411468 -91.63839515 93.79031321 -91.64369458 92.6118511 C-91.59856026 82.02071866 -90.24538407 72.04320552 -86.25586987 62.19672108 C-85.94802563 61.42948719 -85.64018139 60.6622533 -85.32300854 59.87176991 C-79.9817206 46.98461813 -72.20180808 36.90279841 -62.38086987 27.13422108 C-61.5442683 26.29761951 -60.70766674 25.46101795 -59.84571362 24.59906483 C-44.13033437 9.70139637 -21.76986474 0.0363563 0 0 Z " fill="#FEFEFE" transform="translate(275.3808698654175,209.86577892303467)"/>
<path d="M0 0 C0.75248829 0.0015486 1.50497657 0.0030972 2.28026754 0.00469273 C3.07414288 0.00242718 3.86801823 0.00016162 4.6859504 -0.00217259 C7.36777927 -0.00854311 10.049558 -0.00768122 12.73139364 -0.00685817 C14.64656053 -0.00984824 16.56172681 -0.01325041 18.47689229 -0.01703578 C23.70128734 -0.02590716 28.92566602 -0.02821553 34.15006787 -0.02885157 C37.42053871 -0.02956164 40.69100538 -0.03169541 43.96147519 -0.03434879 C55.39194548 -0.04362072 66.82240409 -0.04768239 78.25287801 -0.04689723 C88.86739431 -0.04629968 99.48185925 -0.05678297 110.09636259 -0.0726409 C119.22871294 -0.08579246 128.36104669 -0.09107778 137.49340641 -0.09044182 C142.93792903 -0.09018856 148.38240628 -0.0929423 153.82691938 -0.10361987 C158.96918983 -0.11342656 164.11137282 -0.11329561 169.25364667 -0.10610324 C171.12303721 -0.10507198 172.99243355 -0.10733132 174.86181432 -0.1134637 C218.47173067 -0.24703391 264.52051997 6.858496 296.72870809 38.7634055 C309.28958401 51.81437341 316.34431628 66.40683809 319.79120809 84.1384055 C319.96635946 84.97822972 320.14151082 85.81805394 320.32196981 86.68332738 C321.60982386 93.16740254 322.17774596 99.40624185 322.16620809 106.0134055 C322.16459676 106.99865208 322.16298543 107.98389867 322.16132528 108.9990012 C321.76125225 133.55838621 314.31555008 158.32320306 296.79120809 176.1384055 C296.13120809 176.1384055 295.47120809 176.1384055 294.79120809 176.1384055 C294.57722371 176.69656956 294.36323934 177.25473363 294.14277059 177.82981175 C289.86216406 185.14148359 280.07192709 191.09356161 272.79120809 195.1384055 C272.13120809 195.1384055 271.47120809 195.1384055 270.79120809 195.1384055 C270.79120809 195.7984055 270.79120809 196.4584055 270.79120809 197.1384055 C272.10605184 197.32209691 272.10605184 197.32209691 273.44745809 197.50949925 C285.01112929 199.68444208 296.08872239 206.6700817 305.79120809 213.1384055 C305.79120809 213.7984055 305.79120809 214.4584055 305.79120809 215.1384055 C306.59558309 215.478718 306.59558309 215.478718 307.41620809 215.8259055 C314.37133132 219.66952624 319.29317007 225.68817331 323.79120809 232.1384055 C323.79120809 232.7984055 323.79120809 233.4584055 323.79120809 234.1384055 C324.45120809 234.1384055 325.11120809 234.1384055 325.79120809 234.1384055 C333.67290142 244.44158294 338.20232469 257.57284952 340.79120809 270.1384055 C340.95894735 270.81782201 341.1266866 271.49723851 341.29950887 272.19724339 C343.05305431 279.79358972 343.18945061 287.30773939 343.16620809 295.0759055 C343.16539235 296.10095189 343.16539235 296.10095189 343.16456014 297.14670628 C343.06223755 325.16836217 334.30377492 349.13976535 314.72870809 369.5759055 C291.34777065 392.77471689 259.41895318 400.60216877 227.79120809 405.1384055 C226.7845129 405.30763744 225.77781772 405.47686938 224.74061662 405.65122956 C220.23564322 406.20693674 215.86434756 406.27396165 211.33162862 406.25866002 C210.39868126 406.25951444 209.4657339 406.26036887 208.50451541 406.26124918 C205.38920377 406.26289176 202.27394638 406.25740266 199.15863973 406.25193089 C196.92118247 406.25164873 194.68372511 406.25180732 192.4462679 406.2523734 C186.37868599 406.25266024 180.31112386 406.24678171 174.24354655 406.23979944 C167.90009535 406.23354714 161.5566437 406.23296062 155.2131899 406.23177403 C144.56821226 406.22901932 133.92324242 406.22277359 123.27826864 406.21384495 C112.31602942 406.2046598 101.35379217 406.19758436 90.39154989 406.19333714 C89.71534095 406.19307442 89.03913202 406.1928117 88.34243191 406.19254101 C84.94994219 406.19123593 81.55745245 406.18997223 78.16496271 406.18872911 C50.04037279 406.17836978 21.91579089 406.16068851 -6.20879191 406.1384055 C-6.23165595 354.56082197 -6.24928894 302.98323896 -6.25985724 251.40565136 C-6.26110802 245.32332396 -6.26240234 239.24099656 -6.26372355 233.15866917 C-6.26398586 231.9477325 -6.26424817 230.73679583 -6.26451843 229.48916411 C-6.26887565 209.85423054 -6.27676347 190.21929989 -6.28594471 170.58436806 C-6.29527982 150.4531925 -6.30084722 130.32201847 -6.30288041 110.19084084 C-6.30425593 97.75811311 -6.3086081 85.32539361 -6.31670838 72.89266842 C-6.32197409 64.37949183 -6.32359661 55.86631953 -6.32229329 47.35314143 C-6.32164963 42.43363958 -6.32267051 37.51415215 -6.32799739 32.59465283 C-6.33283042 28.09868196 -6.3331312 23.60273536 -6.32969081 19.10676342 C-6.32926502 17.47283939 -6.33056156 15.8389139 -6.33367509 14.20499278 C-6.33763758 11.99879418 -6.33555625 9.79268538 -6.33183974 7.58648843 C-6.33221946 6.35657428 -6.33259918 5.12666013 -6.33299041 3.85947585 C-6.11812365 -0.84804953 -4.2175738 0.020054 0 0 Z M53.79120809 50.1384055 C53.79120809 91.7184055 53.79120809 133.2984055 53.79120809 176.1384055 C77.70134957 176.22593659 77.70134957 176.22593659 101.61152059 176.28488988 C111.37459001 176.30262899 121.13758126 176.3233805 130.90058309 176.36472386 C138.01375617 176.39483138 145.12686528 176.4140286 152.24010032 176.42067099 C155.99888944 176.4245475 159.75749572 176.43351519 163.51622564 176.45559567 C191.6064334 176.64788927 191.6064334 176.64788927 218.79120809 170.1384055 C219.74124715 169.79035863 220.69128621 169.44231175 221.67011434 169.083718 C236.70219392 163.20911219 249.81406638 154.11373405 256.79120809 139.1384055 C263.08746703 122.02549657 263.52770362 105.67124987 257.47870809 88.3884055 C247.60349095 69.3694688 232.5831911 60.77391413 212.92792684 54.177468 C200.7809755 50.54238034 188.20227699 49.83696562 175.60395223 49.91135472 C174.26185535 49.911921 172.91975786 49.91159806 171.57766134 49.91046971 C167.98769854 49.90990365 164.39787363 49.92153468 160.80794245 49.93561763 C157.03637544 49.94825168 153.26480411 49.94930535 149.4932192 49.95166844 C142.37507934 49.95784642 135.25700205 49.97420653 128.13888955 49.99436742 C118.50330695 50.02105722 108.86770683 50.03172887 99.23209649 50.04337186 C84.08508697 50.06209046 68.93820938 50.10196037 53.79120809 50.1384055 Z M53.79120809 226.1384055 C53.79120809 269.3684055 53.79120809 312.5984055 53.79120809 357.1384055 C79.15447545 357.22598705 79.15447545 357.22598705 104.51777059 357.28488988 C114.8794702 357.30260462 125.24109597 357.32328588 135.60273153 357.36472386 C143.15324592 357.39490493 150.7036997 357.41404552 158.25427276 357.42067099 C162.24128568 357.42453541 166.22812538 357.43342197 170.21508199 357.45559567 C203.41367175 357.63289071 241.19850342 357.68656342 267.47870809 334.0759055 C280.98607115 319.49446296 282.68471895 301.80605104 281.99579793 282.77854222 C281.06260161 270.73607793 276.6535768 260.29161087 268.79120809 251.1384055 C268.0757784 250.26442113 268.0757784 250.26442113 267.34589559 249.3727805 C256.91209015 237.73305786 240.41074682 232.30196996 225.54120809 229.4509055 C223.99626668 229.13282933 223.99626668 229.13282933 222.42011434 228.80832738 C209.65280838 226.2945162 196.8696086 225.98913921 183.89130574 226.02488011 C182.46068748 226.02516308 181.03006907 226.02500211 179.59945089 226.02443761 C175.76361229 226.02415392 171.92780578 226.02998054 168.09197456 226.03701156 C164.06548176 226.04331724 160.03898802 226.04385455 156.01249105 226.04503697 C148.40914211 226.04812921 140.80580778 226.05631384 133.20246524 226.06638646 C122.91294646 226.07971801 112.62342362 226.08506455 102.33389837 226.09088868 C86.1529907 226.10025543 69.97211382 226.12018832 53.79120809 226.1384055 Z " fill="#191919" transform="translate(995.208791911602,257.8615944981575)"/>
<path d="M0 0 C18.81 0 37.62 0 57 0 C57.33 54.45 57.66 108.9 58 165 C58.33 164.34 58.66 163.68 59 163 C59.66 163 60.32 163 61 163 C61.37898438 162.13761719 61.37898438 162.13761719 61.765625 161.2578125 C71.85582922 142.80167947 100.61675953 130.3319766 119.5390625 124.58984375 C158.42678779 113.37817267 202.92062799 117.68954948 239 136 C248.73854379 141.38086519 258.6278077 147.64261888 267 155 C267 155.66 267 156.32 267 157 C267.58265625 157.2578125 268.1653125 157.515625 268.765625 157.78125 C271.1802903 159.09834017 272.81740177 160.55088384 274.75 162.5 C275.36359375 163.1084375 275.9771875 163.716875 276.609375 164.34375 C278 166 278 166 278 168 C278.66 168 279.32 168 280 168 C281.89735251 170.36055594 283.68092809 172.7255511 285.4375 175.1875 C286.17323242 176.19780273 286.17323242 176.19780273 286.92382812 177.22851562 C294 187.01674258 294 187.01674258 294 190 C294.66 190 295.32 190 296 190 C309.91472352 217.20794573 317.38442317 242.57014152 317.31567383 273.29345703 C317.31252021 276.23117456 317.33603368 279.16787529 317.36132812 282.10546875 C317.41730602 298.31903685 315.47579439 313.50466855 310.8125 329.0625 C310.36076416 330.58109619 310.36076416 330.58109619 309.89990234 332.13037109 C304.40237777 349.96697238 295.55934442 365.67109105 283.62890625 380.01171875 C281.85680026 382.10840554 281.85680026 382.10840554 280 385 C279.34 385 278.68 385 278 385 C277.7421875 385.58265625 277.484375 386.1653125 277.21875 386.765625 C275.90165983 389.1802903 274.44911616 390.81740177 272.5 392.75 C271.8915625 393.36359375 271.283125 393.9771875 270.65625 394.609375 C269 396 269 396 267 396 C267 396.66 267 397.32 267 398 C265.14089612 399.63698509 263.28724524 401.13814614 261.3125 402.625 C260.72670166 403.0694043 260.14090332 403.51380859 259.53735352 403.97167969 C232.04211945 424.50949121 201.33234325 433.97834471 167.20166016 433.65185547 C163.86896799 433.6249513 160.53962527 433.65183615 157.20703125 433.68359375 C121.87746737 433.73976753 89.19518796 421.04061626 64 396 C61.36 393.03 58.72 390.06 56 387 C55.67 401.19 55.34 415.38 55 430 C36.85 430 18.7 430 0 430 C0 288.1 0 146.2 0 0 Z M154.82128906 169.9921875 C130.88722619 170.08013996 109.16333458 178.64258745 91 194 C89.50146484 195.18722656 89.50146484 195.18722656 87.97265625 196.3984375 C69.85328131 212.25586682 60.74241972 235.79161293 57 259 C56.81566406 260.09570312 56.63132812 261.19140625 56.44140625 262.3203125 C53.05204398 290.57499623 59.36504034 320.96708266 76.8125 343.8125 C93.64741082 364.96770295 115.6200523 378.28234047 142.31640625 382.52734375 C145.22161891 382.80974125 148.08198542 382.94509112 151 383 C152.62421875 383.05800781 152.62421875 383.05800781 154.28125 383.1171875 C180.53029881 383.64926281 203.51476575 376.54337857 224 360 C224.68578125 359.46761719 225.3715625 358.93523437 226.078125 358.38671875 C227.43212247 357.31427683 228.72674021 356.1671548 230 355 C230 354.34 230 353.68 230 353 C230.66 353 231.32 353 232 353 C233.67538028 351.07753127 235.22229975 349.16043095 236.75 347.125 C237.20101074 346.52494141 237.65202148 345.92488281 238.11669922 345.30664062 C239.4242675 343.54694012 240.715471 341.77656537 242 340 C242.56460938 339.22398437 243.12921875 338.44796875 243.7109375 337.6484375 C260.18392281 312.62042115 262.88835223 277.83922582 257.47827148 249.01098633 C253.86357727 232.28779774 246.01014218 217.04714741 235 204 C234.43925781 203.30648437 233.87851563 202.61296875 233.30078125 201.8984375 C231.92030642 200.22047536 230.46670154 198.60313889 229 197 C228.34 197 227.68 197 227 197 C227 196.34 227 195.68 227 195 C206.211767 177.02589461 181.87201737 170.08918697 154.82128906 169.9921875 Z " fill="#191919" transform="translate(2865,234)"/>
<path d="M0 0 C18.81 0 37.62 0 57 0 C57.33 53.46 57.66 106.92 58 162 C59.98 159.69 61.96 157.38 64 155 C90.05798784 128.6711391 128.05078281 118.95610169 164 118.75 C179.87455875 118.82879124 194.7453448 120.60900117 210 125 C211.02351563 125.28617187 212.04703125 125.57234375 213.1015625 125.8671875 C240.45180158 134.19758377 262.47578305 153.04766456 275.9921875 178.04296875 C294.22977395 213.26251146 292.15949162 251.8635519 292.10139394 290.37683296 C292.09505643 295.3014728 292.09454851 300.22611355 292.09336853 305.15075684 C292.09028539 314.43602996 292.08211356 323.72129103 292.07201904 333.0065589 C292.06076307 343.59457862 292.05532378 354.18259897 292.05032361 364.77062321 C292.03992771 386.51375699 292.02162072 408.25687428 292 430 C272.86 430 253.72 430 234 430 C233.98018066 424.504646 233.96036133 419.00929199 233.93994141 413.34741211 C233.87295819 395.16667386 233.79541747 376.98599188 233.71247292 358.80531979 C233.66245299 347.78518484 233.61600924 336.76505694 233.578125 325.74487305 C233.5450775 316.13433946 233.50517676 306.5238623 233.45720994 296.91339117 C233.43207121 291.82959708 233.41025337 286.74583981 233.39665604 281.66200066 C233.38372018 276.86609479 233.36154456 272.07031604 233.33261681 267.27448082 C233.32363026 265.52472061 233.31787198 263.77493998 233.31578636 262.02515793 C233.28328339 238.87511045 230.56563603 212.20311153 213.66015625 194.53125 C212.83837891 193.77328125 212.83837891 193.77328125 212 193 C210.97712891 192.05640625 210.97712891 192.05640625 209.93359375 191.09375 C197.6473644 180.56847939 184.74996171 175.59152141 169 173 C167.83984375 172.80792969 166.6796875 172.61585938 165.484375 172.41796875 C148.90397428 170.42906418 130.68721824 172.13388286 115 178 C114.06285156 178.33644531 113.12570312 178.67289063 112.16015625 179.01953125 C89.16595822 187.86800642 74.76258644 205.08073235 65 227 C55.20950953 251.12257727 57.67606104 280.06645744 57.59528303 305.64157414 C57.57938967 310.0310602 57.55268694 314.420482 57.5272522 318.80992126 C57.48091898 327.07869236 57.44395874 335.34747619 57.41057932 343.61630863 C57.3720316 353.04843 57.32270995 362.48048611 57.27259517 371.912552 C57.16995353 391.27499193 57.08189936 410.63746046 57 430 C38.19 430 19.38 430 0 430 C0 288.1 0 146.2 0 0 Z " fill="#191919" transform="translate(1416,234)"/>
<path d="M0 0 C1.20981224 -0.00538554 2.41962448 -0.01077108 3.6660977 -0.01631981 C6.98892969 -0.0280651 10.31125388 -0.02656935 13.63406456 -0.019153 C17.23129597 -0.01439253 20.82847536 -0.02695638 24.4256897 -0.03717041 C31.4589752 -0.05430723 38.49217115 -0.05520916 45.5254721 -0.04995751 C51.24543056 -0.0459053 56.96536269 -0.0473718 62.6853199 -0.05270576 C63.90951138 -0.0538284 63.90951138 -0.0538284 65.15843399 -0.05497371 C66.81673308 -0.05650529 68.47503217 -0.05804364 70.13333125 -0.05958868 C85.66047782 -0.073295 101.1875739 -0.067889 116.7147193 -0.05640347 C130.89924981 -0.04647123 145.08364988 -0.05941491 159.26816028 -0.08333766 C173.85820661 -0.10775765 188.44819226 -0.11732952 203.03825861 -0.11068493 C211.21935068 -0.10719938 219.40034245 -0.10938084 227.58141899 -0.12693596 C234.54501019 -0.14169421 241.50843044 -0.14224617 248.47201841 -0.12486505 C252.02006123 -0.11638266 255.56779915 -0.11413712 259.11582565 -0.1295166 C262.97312317 -0.1460288 266.82995585 -0.13114824 270.68725586 -0.11352539 C272.34575834 -0.1279329 272.34575834 -0.1279329 274.03776592 -0.14263147 C288.65048402 -0.00599105 301.07702224 5.22274489 311.71961975 15.20018005 C321.63057997 25.73944245 326.0559238 38.21418644 325.9032135 52.52049255 C325.90466873 53.6377774 325.90612396 54.75506226 325.90762329 55.90620422 C325.9059744 58.25080493 325.89452765 60.59541762 325.87367249 62.93992615 C325.84463974 66.5102214 325.85310225 70.07903527 325.86610413 73.6493988 C325.85986761 75.93977053 325.85147736 78.23013763 325.8407135 80.52049255 C325.84364914 81.57696991 325.84658478 82.63344727 325.84960938 83.72193909 C325.76848121 90.14926094 324.84842196 95.4388453 322.40711975 101.38768005 C321.87731506 102.73152771 321.87731506 102.73152771 321.33680725 104.1025238 C315.04055188 117.371299 304.10967404 126.38097753 290.40711975 131.38768005 C289.47023787 131.73721174 288.533356 132.08674343 287.56808376 132.44686699 C281.72128255 134.07631207 275.59828626 133.65493896 269.58169556 133.62818909 C268.16497166 133.62906182 266.74824808 133.63081406 265.33152622 133.63336742 C261.44796186 133.63783159 257.56450818 133.62985009 253.68095791 133.6198113 C249.4894945 133.61116568 245.29803721 133.61409775 241.10656738 133.61561584 C233.84769782 133.61666399 226.58886425 133.61039472 219.33000374 133.59914017 C208.83494494 133.58287862 198.33990352 133.57767649 187.84483349 133.57516418 C170.81683897 133.57078811 153.78886362 133.55748138 136.76087952 133.53855896 C120.22084143 133.5201979 103.68080855 133.5060425 87.14076233 133.49754333 C85.61119219 133.49675516 85.61119219 133.49675516 84.05072165 133.49595107 C78.93506376 133.49334098 73.81940583 133.49081356 68.70374787 133.48832726 C26.27152522 133.4675975 -16.16067653 133.43237434 -58.59288025 133.38768005 C-58.66270006 122.52961744 -58.71585288 111.67160913 -58.74831676 100.81336689 C-58.76390569 95.77026698 -58.78501879 90.7273218 -58.81919861 85.68431091 C-58.85203543 80.80837695 -58.86978406 75.93259088 -58.87751198 71.05655479 C-58.88301216 69.20562096 -58.89375136 67.3546943 -58.91007042 65.50382423 C-59.08293503 45.06642253 -55.75655771 30.06988114 -41.46788025 14.82518005 C-29.62728032 3.34158314 -16.1074426 -0.08737841 0 0 Z " fill="#FE4F13" transform="translate(311.59288024902344,277.61231994628906)"/>
<path d="M0 0 C1.11785889 0.01305176 1.11785889 0.01305176 2.25830078 0.02636719 C11.63728061 0.15349522 20.61044458 1.50885373 29.8125 3.3125 C31.35139893 3.61353638 31.35139893 3.61353638 32.92138672 3.9206543 C43.19924457 6.05409093 53.0252021 9.22173103 62.5 13.75 C63.57012329 14.25781006 63.57012329 14.25781006 64.66186523 14.77587891 C71.11428535 17.91637976 77.43570032 21.43277136 83 26 C83 26.66 83 27.32 83 28 C83.556875 28.226875 84.11375 28.45375 84.6875 28.6875 C87.67204749 30.38143236 89.62654045 32.51614698 92 35 C92.77150391 35.67095703 92.77150391 35.67095703 93.55859375 36.35546875 C103.99327983 45.72981721 110.85451876 60.72878206 115.125 73.875 C115.51510254 75.07213623 115.51510254 75.07213623 115.91308594 76.29345703 C121.83465973 94.7861171 122.3069436 114.16365562 122.22705078 133.44628906 C122.22648473 135.39995315 122.226807 137.35361765 122.22793579 139.30728149 C122.22850274 144.54150597 122.21685669 149.77563622 122.20278788 155.00983906 C122.19016918 160.50572019 122.18910133 166.00160418 122.18673706 171.49749756 C122.18055469 181.87373044 122.16418839 192.24992049 122.14403808 202.62613463 C122.12157733 214.45224408 122.11066022 226.27835571 122.10064721 238.10448122 C122.07981879 262.4030166 122.04318376 286.70149336 122 311 C103.85 311 85.7 311 67 311 C66.67 299.78 66.34 288.56 66 277 C64.68 278.65 63.36 280.3 62 282 C60.375 283.8125 60.375 283.8125 59 285 C58.34 285 57.68 285 57 285 C57 285.66 57 286.32 57 287 C53.50819182 289.89787445 49.71754196 292.40114018 46 295 C45.31808594 295.52078125 44.63617187 296.0415625 43.93359375 296.578125 C39.06300596 300.15972895 33.76179094 302.64257861 28.25 305.0625 C27.55519531 305.37896484 26.86039063 305.69542969 26.14453125 306.02148438 C8.82698686 313.32966819 -8.74987776 314.81454405 -27.35644531 314.65185547 C-30.99650092 314.62502579 -34.63347405 314.65176733 -38.2734375 314.68359375 C-59.11498403 314.71493509 -77.32512522 311.29593767 -96 302 C-97.52367187 301.2575 -97.52367187 301.2575 -99.078125 300.5 C-104.89854964 297.50849684 -109.89248509 293.93421704 -114.90625 289.734375 C-117.08574483 287.86801017 -117.08574483 287.86801017 -120 286 C-120 285.34 -120 284.68 -120 284 C-120.66 284 -121.32 284 -122 284 C-122 283.34 -122 282.68 -122 282 C-122.99 281.67 -123.98 281.34 -125 281 C-126.70861104 279.01359031 -128.23757077 277.06593384 -129.75 274.9375 C-130.18957031 274.32132813 -130.62914062 273.70515625 -131.08203125 273.0703125 C-144.34256383 253.77875052 -148.68108998 230.40596005 -144.8125 207.4375 C-140.32870045 183.4318437 -128.93839427 166.13325505 -109.05908203 152.35839844 C-103.97078187 149.0015924 -98.6035123 146.39598457 -93 144 C-91.94039062 143.54109375 -90.88078125 143.0821875 -89.7890625 142.609375 C-79.22286652 138.44313145 -68.16252744 136.80764333 -57 135 C-56.1906601 134.82906326 -55.38132019 134.65812653 -54.54745483 134.48200989 C-49.60963246 133.81108402 -44.73966711 133.86949229 -39.76220703 133.88647461 C-38.63967026 133.88632858 -37.51713348 133.88618256 -36.36058044 133.8860321 C-32.65963797 133.88672735 -28.95874616 133.89450163 -25.2578125 133.90234375 C-22.68805977 133.90420931 -20.11830668 133.90563256 -17.54855347 133.90663147 C-11.48198853 133.91005619 -5.41544442 133.91793332 0.65111268 133.92798096 C7.5604286 133.93917495 14.4697454 133.94466082 21.37906814 133.94967639 C35.58605513 133.96011685 49.79302692 133.97769578 64 134 C63.87635098 130.00090749 63.73824644 126.0024362 63.59765625 122.00390625 C63.54575134 120.31666443 63.54575134 120.31666443 63.49279785 118.59533691 C62.86748955 101.40407195 57.43173461 83.48532781 45.12109375 70.88671875 C24.0981054 52.18671254 -2.2600071 51.14234448 -29 52 C-34.06820294 52.29787837 -39.01447988 53.04624832 -44 54 C-44.69609375 54.12890625 -45.3921875 54.2578125 -46.109375 54.390625 C-70.00191292 58.90180349 -92.84700719 68.91300567 -112 84 C-117.37396763 79.44511294 -120.14415831 73.67481305 -123.375 67.5 C-124.51921023 65.33837171 -125.66373904 63.17691202 -126.80859375 61.015625 C-127.35499512 59.97857422 -127.90139648 58.94152344 -128.46435547 57.87304688 C-129.76138137 55.44643307 -131.09367189 53.05243747 -132.47265625 50.671875 C-133.12105469 49.54265625 -133.76945312 48.4134375 -134.4375 47.25 C-134.99308594 46.30640625 -135.54867188 45.3628125 -136.12109375 44.390625 C-137 42 -137 42 -136.49609375 39.94140625 C-117.10368789 14.77684825 -71.43137454 5.72669854 -42.11523438 1.59326172 C-28.10097739 -0.15238242 -14.10167856 -0.31272281 0 0 Z M-73 188 C-73.69738281 188.57492187 -74.39476562 189.14984375 -75.11328125 189.7421875 C-81.42869908 195.47482666 -87.38394358 204.3629669 -88.19287109 213.07788086 C-88.68504995 227.65979814 -88.18063929 238.2424702 -78.375 249.8125 C-64.78794468 263.8235199 -47.89530588 268.82838944 -28.890625 269.16796875 C-12.32096231 269.44201365 -12.32096231 269.44201365 4 267 C5.0209375 266.75507812 6.041875 266.51015625 7.09375 266.2578125 C17.79141601 263.32374391 28.78884918 258.25295431 38 252 C38 251.34 38 250.68 38 250 C38.53625 249.773125 39.0725 249.54625 39.625 249.3125 C50.7543539 243.16206758 60.15602784 230.04144211 64 218 C65.20432476 210.75083386 64.76451239 203.3746456 64.5 196.0625 C64.45976757 194.1074959 64.42328424 192.1524109 64.390625 190.19726562 C64.30352332 185.46280233 64.16608007 180.73232387 64 176 C51.64638915 175.95340433 39.29279963 175.91799364 26.93911839 175.89637566 C21.201161 175.88599364 15.46326428 175.87193794 9.7253418 175.84912109 C4.17507784 175.82719172 -1.37512822 175.81538955 -6.92543221 175.81024551 C-9.02982556 175.80658547 -11.13421621 175.79943985 -13.23858452 175.78853989 C-44.97426141 175.16025677 -44.97426141 175.16025677 -73 188 Z " fill="#191919" transform="translate(1929,353)"/>
<path d="M0 0 C0.75958008 0.01256836 1.51916016 0.02513672 2.30175781 0.03808594 C31.78795471 0.69631995 58.5633778 9.70891853 83 26 C83 26.66 83 27.32 83 28 C84.07314453 28.32871094 84.07314453 28.32871094 85.16796875 28.6640625 C88.6286695 30.29655858 90.81754104 32.55910163 93.3125 35.375 C93.79178955 35.9117334 94.2710791 36.4484668 94.76489258 37.00146484 C111.14179388 55.71714193 118.07958535 77.71140291 121 102 C121.17065696 103.21044983 121.34131392 104.42089966 121.5171423 105.66802979 C122.05512107 109.99014264 122.13695747 114.24175277 122.12025452 118.59277344 C122.12153615 119.83421757 122.12153615 119.83421757 122.12284368 121.10074139 C122.12448117 123.8536418 122.11900565 126.60648027 122.11352539 129.359375 C122.11324312 131.34082538 122.11340203 133.32227587 122.1139679 135.3037262 C122.11425431 140.66879304 122.10838276 146.03383744 122.10139394 151.39889908 C122.09513445 157.01096736 122.09455455 162.62303619 122.09336853 168.23510742 C122.09026287 178.85609454 122.08205978 189.47707135 122.07201904 200.09805393 C122.06083416 212.19232477 122.05534147 224.2865961 122.05032361 236.38087082 C122.03987654 261.25392091 122.02154055 286.12695687 122 311 C103.85 311 85.7 311 67 311 C66.67 299.78 66.34 288.56 66 277 C64.68 278.65 63.36 280.3 62 282 C61.34 282 60.68 282 60 282 C59.67 282.99 59.34 283.98 59 285 C58.34 285 57.68 285 57 285 C57 285.66 57 286.32 57 287 C33.06061069 307.84085133 4.08842959 314.92853255 -26.92919922 314.65185547 C-30.49684786 314.62502371 -34.06135154 314.65177118 -37.62890625 314.68359375 C-52.06921336 314.70411104 -65.16760839 313.17867452 -79 309 C-80.10722412 308.66798584 -81.21444824 308.33597168 -82.35522461 307.99389648 C-105.49933025 300.5871548 -126.24689955 283.58946039 -137.49609375 262.1484375 C-138.77065656 259.4631568 -139.91903343 256.76842965 -141 254 C-141.29648438 253.24847656 -141.59296875 252.49695313 -141.8984375 251.72265625 C-146.36946078 238.77439576 -146.58475988 224.45522091 -145 211 C-144.82984375 209.46279297 -144.82984375 209.46279297 -144.65625 207.89453125 C-141.78343092 186.98372317 -131.108248 170.34791779 -115.375 156.8125 C-88.86983578 136.73535986 -55.76912573 133.32650572 -23.59765625 133.609375 C-21.0522049 133.61685902 -18.50674769 133.62254169 -15.96128845 133.62652588 C-10.01556613 133.64008196 -4.07015869 133.67139349 1.87543637 133.71192384 C8.66177033 133.75714841 15.4481215 133.77875385 22.23456943 133.79870558 C36.15654681 133.84014735 50.07825643 133.91017701 64 134 C63.8782151 129.83814319 63.74120133 125.67691802 63.6015625 121.515625 C63.56748291 120.34467285 63.53340332 119.1737207 63.49829102 117.96728516 C62.84388481 99.15475932 56.94249725 82.15422885 43 69 C22.76328494 51.29287432 -5.90058344 50.64235576 -31.31787109 52.13623047 C-35.59621644 52.50377875 -39.78371212 53.20107579 -44 54 C-44.65887207 54.1129541 -45.31774414 54.2259082 -45.99658203 54.34228516 C-69.25995262 58.38080197 -94.134238 68.2238008 -112 84 C-115.00096566 81.22366474 -116.95132962 78.61170717 -118.828125 74.98828125 C-120.94220436 70.98682098 -123.10217785 67.02822746 -125.359375 63.10546875 C-125.91753906 62.13029297 -126.47570313 61.15511719 -127.05078125 60.15039062 C-128.19589141 58.15368704 -129.34440272 56.15893064 -130.49609375 54.16601562 C-131.04910156 53.19728516 -131.60210938 52.22855469 -132.171875 51.23046875 C-132.6678418 50.36832764 -133.16380859 49.50618652 -133.67480469 48.61791992 C-135.09640289 45.80955635 -136.07461935 43.0047428 -137 40 C-131.68311136 35.03043668 -126.27750058 31.05979195 -119.9375 27.5 C-119.10750488 27.02860596 -118.27750977 26.55721191 -117.42236328 26.0715332 C-80.99801549 5.63571895 -41.38607879 -0.72661401 0 0 Z M-78.8125 193.6875 C-87.79602674 204.34349182 -89.32444412 215.13137566 -88.2734375 228.66308594 C-86.81879067 241.09512116 -79.28864268 250.18642781 -69.75 257.8125 C-49.20151178 271.18610041 -20.25120628 272.11731584 3.19238281 267.47827148 C25.28385354 262.48374989 44.05122192 250.45532921 57.21875 231.9609375 C57.8065625 230.98382812 58.394375 230.00671875 59 229 C59.41471558 228.43938873 59.82943115 227.87877747 60.25671387 227.30117798 C66.0499631 218.17391038 64.53620792 207.2449174 64.3125 196.875 C64.28738546 194.84898585 64.26457787 192.82294173 64.24414062 190.796875 C64.18939663 185.86383554 64.10329823 180.93225188 64 176 C51.62911839 175.95342702 39.25825802 175.91800493 26.88730621 175.89637566 C21.14147316 175.88598879 15.3957006 175.87192392 9.64990234 175.84912109 C4.09315913 175.82720941 -1.46352632 175.81539317 -7.02030945 175.81024551 C-9.12832039 175.80658237 -11.23632858 175.79943038 -13.34431458 175.78853989 C-37.04505541 175.67109077 -61.23265973 175.70352547 -78.8125 193.6875 Z " fill="#1A1A1A" transform="translate(2643,353)"/>
<path d="M0 0 C0 18.81 0 37.62 0 57 C-8.25 57 -16.5 57 -25 57 C-43.69032971 58.81941263 -62.83267693 65.32678256 -77 78 C-77.73605469 78.64324219 -78.47210937 79.28648437 -79.23046875 79.94921875 C-93.52302391 93.257777 -101.86314194 111.97647367 -105 131 C-105.16018805 131.7898592 -105.32037609 132.5797184 -105.48541832 133.39351273 C-107.16966164 142.20848419 -107.30723602 150.8528964 -107.31884766 159.78417969 C-107.32816518 161.44110595 -107.33833651 163.09802759 -107.34928894 164.75494385 C-107.37639759 169.21689113 -107.39168104 173.67880718 -107.40471697 178.14081478 C-107.420432 182.81732163 -107.44719517 187.49376548 -107.4727478 192.17022705 C-107.51938822 201.009629 -107.5562033 209.84904299 -107.58942068 218.68850446 C-107.62774667 228.75876327 -107.67712913 238.82895858 -107.72740483 248.89916372 C-107.83050533 269.59940126 -107.91837722 290.29966586 -108 311 C-127.14 311 -146.28 311 -166 311 C-166.02202573 271.90703565 -166.04049745 232.81407713 -166.05106533 193.72110835 C-166.05231611 189.11086584 -166.05361042 184.50062335 -166.05493164 179.89038086 C-166.05519395 178.97252443 -166.05545626 178.05466801 -166.05572652 177.10899775 C-166.06008354 162.22696064 -166.06797126 147.34492737 -166.0771528 132.46289254 C-166.08648846 117.20433051 -166.09205542 101.9457705 -166.09408849 86.68720573 C-166.0954639 77.26400446 -166.09981546 67.84081405 -166.10791647 58.41761612 C-166.11318285 51.96486802 -166.11480454 45.51212557 -166.11350138 39.05937547 C-166.11285783 35.3307285 -166.11387741 31.60210058 -166.11920547 27.87345695 C-166.1249264 23.84067921 -166.12300118 19.80794258 -166.12025452 15.77516174 C-166.12462378 13.98774932 -166.12462378 13.98774932 -166.12908131 12.16422755 C-166.12609474 10.55713731 -166.12609474 10.55713731 -166.12304783 8.9175806 C-166.12342755 7.98536719 -166.12380727 7.05315378 -166.1241985 6.09269148 C-166 4 -166 4 -165 3 C-163.31198015 2.90646837 -161.62004793 2.88255209 -159.92944336 2.88647461 C-158.84839828 2.88655014 -157.76735321 2.88662567 -156.65354919 2.88670349 C-154.889515 2.89444542 -154.889515 2.89444542 -153.08984375 2.90234375 C-151.89267227 2.9037587 -150.69550079 2.90517365 -149.46205139 2.90663147 C-145.62050934 2.91225021 -141.77902457 2.92480589 -137.9375 2.9375 C-135.34049563 2.94251259 -132.74349035 2.94707591 -130.14648438 2.95117188 C-123.76428284 2.96137687 -117.3822059 2.98094864 -111 3 C-110.67 18.51 -110.34 34.02 -110 50 C-107.36 46.37 -104.72 42.74 -102 39 C-88.08502033 20.91052642 -64.95057605 9.48124234 -43.0625 4.375 C-42.16080078 4.16335205 -41.25910156 3.9517041 -40.33007812 3.73364258 C-26.81621058 0.69632766 -13.88399165 0 0 0 Z " fill="#191919" transform="translate(2476,353)"/>
<path d="M0 0 C18.48 0 36.96 0 56 0 C56 101.64 56 203.28 56 308 C37.19 308 18.38 308 -1 308 C-1.02202573 268.90703565 -1.04049745 229.81407713 -1.05106533 190.72110835 C-1.05231611 186.11086584 -1.05361042 181.50062335 -1.05493164 176.89038086 C-1.05519395 175.97252443 -1.05545626 175.05466801 -1.05572652 174.10899775 C-1.06008354 159.22696064 -1.06797126 144.34492737 -1.0771528 129.46289254 C-1.08648846 114.20433051 -1.09205542 98.9457705 -1.09408849 83.68720573 C-1.0954639 74.26400446 -1.09981546 64.84081405 -1.10791647 55.41761612 C-1.11318285 48.96486802 -1.11480454 42.51212557 -1.11350138 36.05937547 C-1.11285783 32.3307285 -1.11387741 28.60210058 -1.11920547 24.87345695 C-1.1249264 20.84067921 -1.12300118 16.80794258 -1.12025452 12.77516174 C-1.12462378 10.98774932 -1.12462378 10.98774932 -1.12908131 9.16422755 C-1.12609474 7.55713731 -1.12609474 7.55713731 -1.12304783 5.9175806 C-1.12342755 4.98536719 -1.12380727 4.05315378 -1.1241985 3.09269148 C-1 1 -1 1 0 0 Z " fill="#1A1A1A" transform="translate(2151,356)"/>
<path d="M0 0 C9.65870021 7.30173437 15.98259836 14.92504126 18 27 C18.87332355 39.95206005 17.4697681 50.15728507 10 61 C3.34317328 68.41405488 -4.07511626 73.46092383 -14 75 C-26.90782096 75.62154121 -37.89562329 74.80709339 -48.171875 66.17578125 C-52.61220884 61.92741673 -56.21487138 57.48585941 -59 52 C-59.3196875 51.3709375 -59.639375 50.741875 -59.96875 50.09375 C-64.07956058 40.19735415 -63.27623123 28.2535556 -59.5 18.4375 C-58.69560596 16.61197242 -57.87337922 14.79354661 -57 13 C-56.34 13 -55.68 13 -55 13 C-54.63841797 11.88625 -54.63841797 11.88625 -54.26953125 10.75 C-51.13217096 3.95399495 -43.5482574 -0.07665 -36.9375 -3 C-24.73057713 -7.2271323 -11.25530518 -6.55464595 0 0 Z " fill="#FE4F12" transform="translate(2202,226)"/>
</svg>
